<svg width="50" height="50" viewBox="0 0 50 50" fill="none" xmlns="http://www.w3.org/2000/svg">
<path d="M25 0.61875C11.1875 0.61875 0 11.8125 0 25.6188C0 36.6672 7.1625 46.0359 17.0937 49.3375C18.3437 49.5734 18.8016 48.8 18.8016 48.1359C18.8016 47.5422 18.7812 45.9688 18.7703 43.8859C11.8156 45.3938 10.35 40.5313 10.35 40.5313C9.2125 37.6453 7.56875 36.875 7.56875 36.875C5.30469 35.325 7.74375 35.3563 7.74375 35.3563C10.2547 35.5313 11.5734 37.9313 11.5734 37.9313C13.8031 41.7547 17.425 40.65 18.8547 40.0109C19.0797 38.3938 19.7234 37.2922 20.4375 36.6672C14.8859 36.0422 9.05 33.8922 9.05 24.3125C9.05 21.5828 10.0188 19.3547 11.6234 17.6047C11.3422 16.9734 10.4984 14.4313 11.8422 10.9875C11.8422 10.9875 13.9359 10.3172 18.7172 13.55C20.7172 12.9938 22.8422 12.7188 24.9672 12.7063C27.0922 12.7188 29.2172 12.9938 31.2172 13.55C35.9672 10.3172 38.0609 10.9875 38.0609 10.9875C39.4047 14.4313 38.5609 16.9734 38.3109 17.6047C39.9047 19.3547 40.8734 21.5844 40.8734 24.3125C40.8734 33.9172 35.0297 36.0313 29.4672 36.6453C30.3422 37.3953 31.1547 38.9281 31.1547 41.2703C31.1547 44.6156 31.1234 47.3031 31.1234 48.1156C31.1234 48.7719 31.5609 49.5531 32.8422 49.3031C42.8437 46.0234 50 36.6484 50 25.6172C50 11.8109 38.8063 0.617188 25 0.617188V0.61875Z" fill="black"/>
</svg>
