<svg width="77" height="77" viewBox="0 0 77 77" fill="none" xmlns="http://www.w3.org/2000/svg">
<circle cx="38.5" cy="38.5" r="38.5" fill="#32A3F0"/>
<path d="M50.2042 29.524C49.8682 29.932 49.5442 30.256 49.2322 30.496C48.9202 30.736 48.4762 30.856 47.9002 30.856C47.3482 30.856 46.8442 30.724 46.3882 30.46C45.9562 30.196 45.4642 29.908 44.9122 29.596C44.3602 29.26 43.7122 28.96 42.9682 28.696C42.2242 28.432 41.3002 28.3 40.1962 28.3C38.8282 28.3 37.6402 28.552 36.6322 29.056C35.6482 29.56 34.8322 30.28 34.1842 31.216C33.5362 32.152 33.0562 33.304 32.7442 34.672C32.4322 36.016 32.2762 37.54 32.2762 39.244C32.2762 42.82 32.9602 45.568 34.3282 47.488C35.7202 49.408 37.6282 50.368 40.0522 50.368C41.3482 50.368 42.3682 50.212 43.1122 49.9C43.8802 49.564 44.5282 49.204 45.0562 48.82C45.5842 48.412 46.0642 48.04 46.4962 47.704C46.9522 47.368 47.5162 47.2 48.1882 47.2C49.0762 47.2 49.7482 47.524 50.2042 48.172L53.4442 52.168C52.2922 53.488 51.0802 54.568 49.8082 55.408C48.5362 56.224 47.2282 56.872 45.8842 57.352C44.5642 57.808 43.2322 58.12 41.8882 58.288C40.5442 58.48 39.2362 58.576 37.9642 58.576C35.6842 58.576 33.5002 58.144 31.4122 57.28C29.3482 56.416 27.5242 55.168 25.9402 53.536C24.3802 51.88 23.1322 49.852 22.1962 47.452C21.2842 45.052 20.8282 42.316 20.8282 39.244C20.8282 36.556 21.2242 34.048 22.0162 31.72C22.8322 29.368 24.0202 27.34 25.5802 25.636C27.1642 23.908 29.1082 22.552 31.4122 21.568C33.7402 20.584 36.4282 20.092 39.4762 20.092C42.4042 20.092 44.9722 20.56 47.1802 21.496C49.3882 22.432 51.3802 23.8 53.1562 25.6L50.2042 29.524Z" fill="white"/>
</svg>
