<svg width="58" height="58" viewBox="0 0 58 58" fill="none" xmlns="http://www.w3.org/2000/svg">
<path d="M7.25033 19.1424L27.6156 33.3983C28.4372 33.9662 29.5368 33.9928 30.3875 33.3983L50.7503 19.1424V43.5C50.7503 44.1573 50.4845 44.7591 50.0374 45.2038C49.5903 45.6484 48.991 45.9167 48.3337 45.9167H9.66699C9.00966 45.9167 8.40791 45.6508 7.96324 45.2038C7.51858 44.7567 7.25033 44.1573 7.25033 43.5V19.1424ZM2.41699 14.4589C2.41699 14.4831 2.41699 14.5073 2.41699 14.5314V43.5C2.41699 45.501 3.23866 47.3159 4.54366 48.6233C5.84866 49.9308 7.66599 50.75 9.66699 50.75H48.3337C50.3347 50.75 52.1496 49.9283 53.457 48.6233C54.7644 47.3183 55.5837 45.501 55.5837 43.5V14.529C55.5837 14.5048 55.5837 14.4807 55.5837 14.4565C55.5716 12.4724 54.7547 10.6744 53.457 9.37667C52.1496 8.07167 50.3347 7.25 48.3337 7.25H9.66699C7.66599 7.25 5.85108 8.07167 4.54366 9.37667C3.24591 10.6744 2.42908 12.4724 2.41699 14.4589ZM50.4942 13.4222L29.0003 28.4659L7.50649 13.4222C7.62249 13.1902 7.77716 12.9799 7.96082 12.7963C8.40791 12.3492 9.00966 12.0833 9.66699 12.0833H48.3337C48.991 12.0833 49.5927 12.3492 50.0374 12.7963C50.2211 12.9799 50.3757 13.1926 50.4917 13.4222H50.4942Z" fill="black"/>
</svg>
