<svg width="26" height="26" viewBox="0 0 26 26" fill="none" xmlns="http://www.w3.org/2000/svg">
<path d="M6.18255 12.2338L11.9164 17.9676L11.9164 5.41607C11.9164 4.81807 12.4014 4.33301 12.9994 4.33301C13.5974 4.33301 14.0825 4.81807 14.0825 5.41607L14.0825 17.9676L19.8163 12.2338C20.2396 11.8104 20.9254 11.8104 21.3479 12.2338C21.7704 12.6571 21.7712 13.3428 21.3479 13.7653L13.7648 21.3484C13.6649 21.4483 13.5462 21.5279 13.4138 21.5832C13.1481 21.6929 12.8491 21.6929 12.5842 21.5832C12.4567 21.5304 12.3372 21.4524 12.2332 21.3484L4.65017 13.7653C4.22686 13.342 4.22686 12.6563 4.65017 12.2338C5.07349 11.8113 5.75924 11.8104 6.18174 12.2338H6.18255Z" fill="black"/>
</svg>
